<svg xmlns="http://www.w3.org/2000/svg" xml:space="preserve" style="fill-rule:evenodd;clip-rule:evenodd;stroke-linecap:round;stroke-linejoin:round;stroke-miterlimit:1.5" viewBox="0 0 190 190">
<style>
.birdy {
  fill: #232210;
}
.glint {
  fill: #fff;
}
.ring {
  fill: #EAEB24
}
@media (prefers-color-scheme: dark) {
  .birdy {
    fill: #fafafa;
  }
  .glint {
    fill: #232210;
  }
}
</style>
  <path d="M0-.2h.1V0h.2a.2.2 0 0 0 0-.2L0-.5a.2.2 0 0 1 0-.2v-.1h.5v.2L.2-.7H.1v.1l.1.2.1.1a.3.3 0 0 1 0 .2L.1 0H0v-.1Z" class="ring" style=";fill-rule:nonzero" transform="matrix(7 -10 10 7 39.1 60.5)"/>
  <path d="M.1-.7v-.1h.3-.1V0H0v-.7Z" class="ring" style=";fill-rule:nonzero" transform="matrix(8 -9 9 8 43.2 54.7)"/>
  <path d="M0-.8h.4-.2v.3h.1v.1H.2V0h.2H0v-.8Z" class="ring" style=";fill-rule:nonzero" transform="matrix(9 -8 8 9 47.4 49.7)"/>
  <path d="M0-.8h.1l.1.6.1-.6h.2L.3 0H.2L0-.8Z" class="ring" style=";fill-rule:nonzero" transform="matrix(9 -7 7 9 52 45.4)"/>
  <path d="M0-.8h.4-.2v.3h.1v.1H.2V0h.2H0v-.8Z" class="ring" style=";fill-rule:nonzero" transform="matrix(10 -6 6 10 57.6 41)"/>
  <path d="M0-.8h.2l.2.5v-.5.8L.2-.5a9.8 9.8 0 0 1 0 .3V0H0v-.8Z" class="ring" style=";fill-rule:nonzero" transform="matrix(11 -5 5 11 62.9 37.7)"/>
  <path d="M0-.2h.1V0h.2a.2.2 0 0 0 0-.2L0-.5a.2.2 0 0 1 0-.2v-.1h.5v.2L.2-.7H.1v.1l.1.2.1.1a.3.3 0 0 1 0 .2L.1 0H0v-.1Z" class="ring" style=";fill-rule:nonzero" transform="matrix(12 -3 3 12 73.8 32.8)"/>
  <path d="M.3 0A.2.2 0 0 1 0 0v-.8h.5V0H.2Zm0 0v-.8H.1V0Z" class="ring" style=";fill-rule:nonzero" transform="matrix(12 -2 2 12 80.7 30.9)"/>
  <path d="M0-.8h.4a.1.1 0 0 1 .1 0v.2a.2.2 0 0 1 0 .1V0H0v-.8Zm.2.3h.1v-.2H.1v.2Zm0 .4h.1v-.2H.1v.2Z" class="ring" style=";fill-rule:nonzero" transform="matrix(12 -1 1 12 88.2 29.7)"/>
  <path d="M0-.8h.2v.7h.2V0H0v-.8Z" class="ring" style=";fill-rule:nonzero" transform="matrix(12 1 -1 12 95.8 29.3)"/>
  <path d="M.3 0A.2.2 0 0 1 0 0v-.8h.5V0H.2Zm0 0v-.8H.1V0Z" class="ring" style=";fill-rule:nonzero" transform="matrix(12 2 -2 12 101.7 29.7)"/>
  <path d="M.2-.3H0v-.1h.1v.1Z" class="ring" style=";fill-rule:nonzero" transform="matrix(11 4 -4 11 113 31.8)"/>
  <path d="M0-.2h.1V0h.2a.2.2 0 0 0 0-.2L0-.5a.2.2 0 0 1 0-.2v-.1h.5v.2L.2-.7H.1v.1l.1.2.1.1a.3.3 0 0 1 0 .2L.1 0H0v-.1Z" class="ring" style=";fill-rule:nonzero" transform="matrix(11 5 -5 11 121.9 35)"/>
  <path d="M0-.2h.1V0h.2a.2.2 0 0 0 0-.2L0-.5a.2.2 0 0 1 0-.2v-.1h.5v.2L.2-.7H.1v.1l.1.2.1.1a.3.3 0 0 1 0 .2L.1 0H0v-.1Z" class="ring" style=";fill-rule:nonzero" transform="matrix(10 7 -7 10 128.2 38.3)"/>
  <path d="M0-.8h.2l.2.5v-.5.8L.2-.5a9.8 9.8 0 0 1 0 .3V0H0v-.8Z" class="ring" style=";fill-rule:nonzero" transform="matrix(9 8 -8 9 134 42.2)"/>
  <path d="M0-.8h.2v.7h.1v-.7h.2v.7a.2.2 0 0 1-.2.1.2.2 0 0 1-.2 0v-.8Z" class="ring" style=";fill-rule:nonzero" transform="matrix(8 9 -9 8 140.3 47.4)"/>
  <path d="M0-.8h.2v.7h.2V0H0v-.8Z" class="ring" style=";fill-rule:nonzero" transform="matrix(7 10 -10 7 145.6 53.2)"/>
  <path d="M0-.8h.2v.7h.2V0H0v-.8Z" class="ring" style=";fill-rule:nonzero" transform="matrix(6 10 -10 6 149.2 58)"/>
  <path d="M.2-.3H0v-.1h.1v.1Z" class="ring" style=";fill-rule:nonzero" transform="matrix(5 11 -11 5 154.1 66.5)"/>
  <path d="m0 0 .2-.4a1 1 0 0 0 .1-.2v-.1H.1v.1H0a.2.2 0 0 1 0-.2.2.2 0 0 1 .1 0h.2a.3.3 0 0 1 0 .3L.2 0h.2H0Z" class="ring" style=";fill-rule:nonzero" transform="rotate(75 30 140) scale(12)"/>
  <path d="M0-.6v-.2h.1a.2.2 0 0 1 .2 0h.1V0a.2.2 0 0 1-.1.1H0v-.8Zm.2.4V0h.1v-.6H.2v.5Z" class="ring" style=";fill-rule:nonzero" transform="matrix(2 12 -12 2 159.5 82.3)"/>
  <path d="m0 0 .2-.4a1 1 0 0 0 .1-.2v-.1H.1v.1H0a.2.2 0 0 1 0-.2.2.2 0 0 1 .1 0h.2a.3.3 0 0 1 0 .3L.2 0h.2H0Z" class="ring" style=";fill-rule:nonzero" transform="matrix(0 12 -12 0 160.5 89.9)"/>
  <path d="m0 0 .2-.4a1 1 0 0 0 .1-.2v-.1H.1v.1H0a.2.2 0 0 1 0-.2.2.2 0 0 1 .1 0h.2a.3.3 0 0 1 0 .3L.2 0h.2H0Z" class="ring" style=";fill-rule:nonzero" transform="rotate(95 35.3 122.3) scale(12)"/>
  <path d="M.2-.3H0v-.1h.1v.1Z" class="ring" style=";fill-rule:nonzero" transform="rotate(103 37 117) scale(12)"/>
  <path d="M0-.2h.1V0h.2a.2.2 0 0 0 0-.2L0-.5a.2.2 0 0 1 0-.2v-.1h.5v.2L.2-.7H.1v.1l.1.2.1.1a.3.3 0 0 1 0 .2L.1 0H0v-.1Z" class="ring" style=";fill-rule:nonzero" transform="matrix(-4 11 -11 -4 158 113.7)"/>
  <path d="M.1-.7v-.1h.3-.1V0H0v-.7Z" class="ring" style=";fill-rule:nonzero" transform="rotate(115 38.7 110) scale(12)"/>
  <path d="M0-.8h.4-.2v.3h.1v.1H.2V0h.2H0v-.8Z" class="ring" style=";fill-rule:nonzero" transform="matrix(-6 10 -10 -6 152.8 126.2)"/>
  <path d="M0-.8h.1l.1.6.1-.6h.2L.3 0H.2L0-.8Z" class="ring" style=";fill-rule:nonzero" transform="rotate(126 39.7 104) scale(12)"/>
  <path d="M0-.8h.4-.2v.3h.1v.1H.2V0h.2H0v-.8Z" class="ring" style=";fill-rule:nonzero" transform="rotate(132 41.7 101) scale(12)"/>
  <path d="M0-.8h.2l.2.5v-.5.8L.2-.5a9.8 9.8 0 0 1 0 .3V0H0v-.8Z" class="ring" style=";fill-rule:nonzero" transform="matrix(-9 8 -8 -9 141 141.9)"/>
  <path d="M0-.2h.1V0h.2a.2.2 0 0 0 0-.2L0-.5a.2.2 0 0 1 0-.2v-.1h.5v.2L.2-.7H.1v.1l.1.2.1.1a.3.3 0 0 1 0 .2L.1 0H0v-.1Z" class="ring" style=";fill-rule:nonzero" transform="matrix(-10 6 -6 -10 131.8 149.4)"/>
  <path d="M.3 0A.2.2 0 0 1 0 0v-.8h.5V0H.2Zm0 0v-.8H.1V0Z" class="ring" style=";fill-rule:nonzero" transform="rotate(156 46 89.8) scale(12)"/>
  <path d="M0-.8h.4a.1.1 0 0 1 .1 0v.2a.2.2 0 0 1 0 .1V0H0v-.8Zm.2.3h.1v-.2H.1v.2Zm0 .4h.1v-.2H.1v.2Z" class="ring" style=";fill-rule:nonzero" transform="matrix(-11 4 -4 -11 118.8 156.3)"/>
  <path d="M0-.8h.2v.7h.2V0H0v-.8Z" class="ring" style=";fill-rule:nonzero" transform="matrix(-12 3 -3 -12 111.5 158.6)"/>
  <path d="M.3 0A.2.2 0 0 1 0 0v-.8h.5V0H.2Zm0 0v-.8H.1V0Z" class="ring" style=";fill-rule:nonzero" transform="rotate(173 48.2 83) scale(12)"/>
  <path d="M.2-.3H0v-.1h.1v.1Z" class="ring" style=";fill-rule:nonzero" transform="matrix(-12 -1 1 -12 94.3 160.6)"/>
  <path d="M0-.2h.1V0h.2a.2.2 0 0 0 0-.2L0-.5a.2.2 0 0 1 0-.2v-.1h.5v.2L.2-.7H.1v.1l.1.2.1.1a.3.3 0 0 1 0 .2L.1 0H0v-.1Z" class="ring" style=";fill-rule:nonzero" transform="matrix(-12 -2 2 -12 84.8 159.9)"/>
  <path d="M0-.2h.1V0h.2a.2.2 0 0 0 0-.2L0-.5a.2.2 0 0 1 0-.2v-.1h.5v.2L.2-.7H.1v.1l.1.2.1.1a.3.3 0 0 1 0 .2L.1 0H0v-.1Z" class="ring" style=";fill-rule:nonzero" transform="matrix(-11 -4 4 -11 78 158.4)"/>
  <path d="M0-.8h.2l.2.5v-.5.8L.2-.5a9.8 9.8 0 0 1 0 .3V0H0v-.8Z" class="ring" style=";fill-rule:nonzero" transform="matrix(-11 -5 5 -11 71.2 156.2)"/>
  <path d="M0-.8h.2v.7h.1v-.7h.2v.7a.2.2 0 0 1-.2.1.2.2 0 0 1-.2 0v-.8Z" class="ring" style=";fill-rule:nonzero" transform="matrix(-10 -6 6 -10 63.8 152.8)"/>
  <path d="M0-.8h.2v.7h.2V0H0v-.8Z" class="ring" style=";fill-rule:nonzero" transform="matrix(-10 -7 7 -10 57.1 148.6)"/>
  <path d="M0-.8h.2v.7h.2V0H0v-.8Z" class="ring" style=";fill-rule:nonzero" transform="matrix(-9 -8 8 -9 52.4 145)"/>
  <path d="M.2-.3H0v-.1h.1v.1Z" class="ring" style=";fill-rule:nonzero" transform="matrix(-8 -9 9 -8 45.5 138)"/>
  <path d="m0 0 .2-.4a1 1 0 0 0 .1-.2v-.1H.1v.1H0a.2.2 0 0 1 0-.2.2.2 0 0 1 .1 0h.2a.3.3 0 0 1 0 .3L.2 0h.2H0Z" class="ring" style=";fill-rule:nonzero" transform="matrix(-6 -10 10 -6 39.7 130.5)"/>
  <path d="M0-.6v-.2h.1a.2.2 0 0 1 .2 0h.1V0a.2.2 0 0 1-.1.1H0v-.8Zm.2.4V0h.1v-.6H.2v.5Z" class="ring" style=";fill-rule:nonzero" transform="matrix(-5 -11 11 -5 37 124)"/>
  <path d="m0 0 .2-.4a1 1 0 0 0 .1-.2v-.1H.1v.1H0a.2.2 0 0 1 0-.2.2.2 0 0 1 .1 0h.2a.3.3 0 0 1 0 .3L.2 0h.2H0Z" class="ring" style=";fill-rule:nonzero" transform="matrix(-4 -11 11 -4 33.2 117.1)"/>
  <path d="m0 0 .2-.4a1 1 0 0 0 .1-.2v-.1H.1v.1H0a.2.2 0 0 1 0-.2.2.2 0 0 1 .1 0h.2a.3.3 0 0 1 0 .3L.2 0h.2H0Z" class="ring" style=";fill-rule:nonzero" transform="matrix(-2 -12 12 -2 31 110.2)"/>
  <path d="M.2-.3H0v-.1h.1v.1Z" class="ring" style=";fill-rule:nonzero" transform="matrix(0 -12 12 0 29.5 99.1)"/>
  <circle cx="95" cy="95" r="80" style="fill:none;stroke:#c6887b;stroke-width:1.27px;stroke-dasharray:3.8,3.8,0,0"/>
  <circle cx="95" cy="95" r="62.5" style="fill:none;stroke:#c6887b;stroke-width:1.27px"/>
  <path d="M1 71.8c.8 1.6 3.4 2.1 4.8 2.7 4.4 1.9 8.7 3.8 13.2 5.3 1 .3 5 2 5.8.6.8-1.3-1.7-2.5-2.5-3a67 67 0 0 0-9.6-4c-.6-.2-2.8-.7-3-1.4-.1-.7 6.8 1.4 7.5 1.7 6 2 12.3 3.7 18.5 5.2 2.4.6 6.5 0 8.4 1.7 2 1.8-2.9 1.4-3.3 1.5-1.5.6-12.1.2-11.6 1.5 1.6 3.4 10.3 6.5 13.6 8.2 1.2.7 3.6 2.7 5 1.4.7-.7 2.6-7 2.6-8 0-1.1-2-1.5-2-2.5.2-1 3.9.5 4.2-1.3.4-2.2-3-3.4-4.6-4-5.3-1.8-10.7-3-16.2-4.3-3.6-.9-7.2-1.3-10.8-2.1-.4-.1-4-.8-3.4-1.4 1.9-1.8 7 0 9.1 0 7 .3 14.3-1.5 21.3 0 3.4.6 7.1 4.5 10.6 3.6 5-1.4-3.4-7-1.7-8.4 1.4-1.3 8.8 1.4 10.3 2.4 2.1 1.5 0 6.9.3 9 .5 5.3 5.4 7 8 11 1 1.3 1.8 4.2 3.8 4 2-.2 1.2-2.7.7-3.8-2-4.3-5-6.9-6.1-11.9-.3-1.5.3-5.2-1-6.2-2.1-1.7-1.3 6.7-2 6.8-1.4.3-.4-7.6.3-8.4 5.1-5.8 10-9.6 16.3-13.8 3-1.9 5.7-4.6 9.5-4.3 6.4.6 13.5 5.1 18.2 9.3 6.9 6-5.4-2.7-5.8 0-.4 3.7 6.6 7 8.3 9.8 1.6 2.5-.5 6.1.5 9.2.4 1.3 1 4.1 1.8 5.1 1 1.2 3 1.2 3.8 2.5.5 1-.6 2.9.2 3.6.5.3 2.8-.9 2.7.1-.2 1.5-2.7 1.6-3.1 3-.1.4 3.5 4 .4 5.3-.6.3-.2-2.7-1.5-2-2.1 1.2-.4 9.5-2.2 10-1 .1-.5-4-.5-4.4.5-3.6 1.5-7.1 2-10.8.1-.7.6-3-.7-3-2.4-.1-3.3 11.3-3.4 13.2 0 .5.2 4.1-1 3.3-1-.6-.3-3.3-.3-4.2.2-4.1.1-8.3-.7-12.4-.2-1-.3-3.5-1.4-3.8-2-.5-1.6 2.3-1.4 3.3a61.7 61.7 0 0 1 1.5 16c0 1 .8 5.4-.3 5.6-1.4.3-1.2-8-1.4-9-.1-.5-1-3-1.9-2-1.5 1.5 0 5.5.3 7.3.8 4.3.3 9.2-1 13.3-.4 1.2-2.5 5.2-1.3 6.2 1.3 1.2 2.3-2.6 3.2-2.8.4 0 .6 2 1.4 2.1 1.4.3 2.4-5.4 3.4-3.6.6 1 .3 3.5.6 4.8.6 3 2.1 5.7 2.1 8.9 0 3.3-1.4 6.7-1 10 .3 2.4 2 4.4 3 6.5 3.1 6.5 7 16 15.5 17 2.2.2 11.2-2.8 7.7-6.3-1.2-1.3-6 1.1-8.5 0a29.9 29.9 0 0 1-13.4-20.2c-.3-1.4-1.3-6.4-.4-7.4 0-.1 3.8 8.9 4.6 10.3 2.9 5 9 14.3 15.8 12.1 2-.6 2.8-2.3 4.2-3.5 1.6-1.3 1.7-2 2.4-3.9.5-1 1.7-1.5 2-2.6.8-2.2-2.3-5.6-3.2-7.5-2.2-4.7-1.8-9.9-2.2-14.9 0-1.1.3-6.2-1.4-6.4-1.9-.3.3 7.8-1.4 8.1-1.2.2-.8-4.5-2.4-3.5-2.6 1.5 2 11.8-.2 12.2-1 .2-1.2-3-1.4-3.5-.6-3.3-.7-6.8-1-10.2 0-.8.5-3.2-.7-3.3-2.4-.3-1.6 8.7-3.8 9.1-1.3.3.6-5.7.7-6.1 1.8-6.7 3.2-13.7 4.1-20.6.2-1 0-7 1.2-7.3 1.2-.3 1.4 2.2 1.6 3 .7 3.3.4 6.4.3 9.7 0 .7 0 4.6 1.7 3.2 1.5-1.2.7-4.2.7-5.9.2-5.1.6-10-1.4-15-.3-.7-2.4-5.5-1.1-5.8l3.4 4.2a21 21 0 0 1 2.9 15.3c-.3 1.3-1.8 6-.4 7 1.4.8 2.1-2.3 2.3-3 .2-1.2.2-11.6 1.3-11 1.5.8 1.1 3.7 1.1 5 0 5.4-.4 10.7-.4 16 0 1 .4 6-1 6.2-.8.2-1.3-9.2-2.9-7.9-2.2 2 0 7.2.2 9.6a62 62 0 0 0 6.1 21.2c1.1 2.3 2 5.2 4.2 6.8 1.1.8 2.4 1.2 3.8.7l2-.8c6.4-1.9-4.9-6.8-4.4-9.3.2-1 3.3.5 3.8.7 2.6.9 7-2.2 1.7-5-11-5.9-9-21.5-7.6-31.6 1-6.8 3.5-15 2.1-21.8-1.2-6-5.2-10.9-8.5-15.8-2.6-3.9-4.1-8.6-7.1-12.2-6.8-8-19-12.4-28.7-14.8-3.5-.9-7-.2-10.5-.3-6.5-.3-12.7-2.3-19 .4-4 1.7-6.9 5.1-10.6 7.3-4.6 2.7-12 4.5-13.6 10.6 0 .1-.3 1.8.3 1.2 1.6-1.4 2.5-3.5 4.3-4.9 3.5-2.5 7.7-3.5 11.5-5.2 5.2-2.4 9.3-6.1 14.9-7.8 11-3.4 20 2.3 29.3 7a43 43 0 0 1 15.6 11.7c.9 1.2 3.6 4.3 2.6 6-1.5 2.3-7-4.4-8-5.5-9-9.8-18.8-16.3-32.3-16.1a42 42 0 0 0-20.3 5.2c-1.7 1-2.3 3.4-4 4.3-1.1.5-2.2 0-3.2.7-2.7 2-2.3 8.4-6.1 9.2-4.4 1 2.6-5.1 1.3-5.6-1.5-.6-3.1 2.1-4.3 2.6-2.2.9-5.4.6-7.8 2-1.6.8-2.5 2.7-4.3 3.3-6.4 2-16.4-1.6-23.3-1.5-7.3 0-14.8 3.2-22.1 3.9-1.2 0-5.5 1.3-4.7 3Z" class="birdy" style="fill-rule:nonzero"/>
  <path d="M56.6 144.6c1.2 1.3 3.8-.5 5-.9 5.8-1.8 11.8-4.4 13.5-11 .2-.7.7-5.4-.5-5.2-2.3.5-2 6.8-4 7.3l1-4c1.2-4.4 1.9-8.6 2.1-13.1 0-1 .6-3.4-.5-4-1.7-1-2 4.3-2 5a39 39 0 0 1-4.2 16.8c-.5.9-2.1 4.3-3.4 4.2-1.4-.2 1.8-4.6 2.2-5a29 29 0 0 0 4.2-16.2c0-1 .9-5.2-.2-5.7-1.6-.8-1.8 5.3-1.9 6a38.7 38.7 0 0 1-8.5 19.3c-1 1.3-4.5 4.8-2.8 6.5Zm1.1-50.9c1.2 3.7 5 6.5 6.7 10 .6 1.2.9 4 2 4.7 1.4 1 2.8-8.4 2-9.9-.4-.8-2-3-3.1-2.4-1.2.6 1.5 4 .6 4.2-1 .2-4.8-6.3-6-7-.8-.6-2.8-1.4-2.2.4Zm6-3.5c1.3.8 1.3-2.3.5-3-1.3-1-1.5 2.4-.5 3Zm2.7-2.5c1 .9 1-.8.5-1.3-1-1.1-1.2.6-.5 1.3ZM77 135.9c2.2 1.8 2.2-5.2 3.4-5.5.8-.1.9 5.3 2.5 3.5 2.3-2.5.5-12.7.2-16-.2-1.2-.6-3.9-2-4.4-1-.3-.2 9.7-.1 11 0 .3.3 2.7-.2 2.8-1 .2-.9-2.8-.9-3.2 0-1.7 0-10-2.5-10.2-1.5-.1-.4 3.5-.3 4.2.8 4.3.1 9-.4 13.2 0 1.2-1 3.7.2 4.6Zm-6.2-37.5c1 1.6 1.3-1 .6-2-1.2-1.5-1.2 1.2-.6 2Zm6.3-18.6c3.5 8.2 9.7 14.8 14.4 22.2 1.2 2 4.3 6.9 3.2 9.2-1.1 2.5-3.1-4.6-4.4-2.3-.7 1.4 4.7 9.4 2.4 9.8-1 .2-1-2.4-1.3-3-.4-1.4-4.3-11.9-5.9-10.5-1.2 1 .7 4.3 1 5.5 2 5.5 2.7 10.6 2.5 16.4 0 1-.6 5.6 1.1 5.7 3 .3 4.3-5.6 6.2-7 .9-.7 1.2.9 2.2.2 1-.7 1.6-2.2 2-3.4l.8-6.2c.7-.1-1.1 12 2.4 8.2 3.5-3.9 2.7-14.7 2-19.5-.2-1.3.3-4.8-1.3-5.5-1.2-.4-1 1.6-1 2.2 0 1.2.8 4.3 0 5.3-1.3 1.5-2 0-2.2 3.3 0 .5.4 4.3 0 4.4a17 17 0 0 1-.8-3.7c-.5-2.1-1.6-12.1-4.3-12.4-1.5-.1-.4 3.4-.2 4 .8 3.3 2.3 6.5 2.5 10 0 .5.2 3.2-.6 3.3-.5.1-.7-2.2-.8-2.5l-1.6-8c-2.2-10.5-10-15.9-14.8-24.8-.6-1.2-2.3-8-4-7.8-1.7.4.1 5.9.5 6.9ZM80 67.5c.7.8 3 .6 1.9-.6-.7-.7-3-.5-1.9.6Zm6.1 2.2A13 13 0 0 0 95 77c1 .3 5 1 5-1 .1-2.3-12.6-1.5-10.3-5 2-3 10.5 3.7 13.7 2 5.6-2.8-7.4-13.9-1-11 .7.4 1.4.9 2.3 1 1.3.4 1.6-.5 1.2-1.6-3.9-11-24.8-2.5-19.8 8.4Z" class="birdy" style="fill-rule:nonzero"/>
  <path d="M90.3 67c1 1 4.6-.5 3.6-2-1.2-1.8-5.1.3-3.6 2Z" class="glint" style="fill-rule:nonzero"/>
  <path d="M105.2 126c1.5 1 3-4.8 3.2-5.6 1.2-4.9 1.5-9.9.7-14.9-.3-1.4-.2-4.3-1.7-5.2-1.4-.8-1 3-.9 3.6 1 5.4 1.2 10.5-.3 15.9-.3 1-2.2 5.3-1 6.1Zm-6.4-44.8c2 3.2 10-3 12.2-3.7.6-.1 3.6-.5 2.7-1.8-.4-.6-1.5-.8-2-1.2-1-.5-1.6-2.5-2.5-2.8-1.4-.3-3.4 3.8-4.5 4.6-1.1.7-7.2 3-5.9 5Z" class="birdy" style="fill-rule:nonzero"/>
</svg>